<svg xmlns="http://www.w3.org/2000/svg" width="128" height="128" viewBox="0 0 128 128">
  <!-- 飞书文档图标 -->
  <defs>
    <linearGradient id="grad1" x1="0%" y1="0%" x2="100%" y2="100%">
      <stop offset="0%" style="stop-color:#3370ff;stop-opacity:1" />
      <stop offset="100%" style="stop-color:#2d5cdb;stop-opacity:1" />
    </linearGradient>
  </defs>

  <!-- 背景圆角矩形 -->
  <rect x="8" y="8" width="112" height="112" rx="20" ry="20" fill="url(#grad1)"/>

  <!-- 文档图标 -->
  <g transform="translate(32, 24)">
    <!-- 文档主体 -->
    <path d="M8 0 L48 0 L56 8 L56 72 L8 72 Z" fill="white" opacity="0.95"/>

    <!-- 文档折角 -->
    <path d="M48 0 L48 8 L56 8" fill="#e0e0e0"/>

    <!-- 文字线条 -->
    <rect x="16" y="16" width="32" height="3" rx="1.5" fill="#3370ff"/>
    <rect x="16" y="24" width="32" height="3" rx="1.5" fill="#3370ff"/>
    <rect x="16" y="32" width="32" height="3" rx="1.5" fill="#3370ff"/>
    <rect x="16" y="40" width="24" height="3" rx="1.5" fill="#3370ff"/>
    <rect x="16" y="48" width="28" height="3" rx="1.5" fill="#3370ff"/>
    <rect x="16" y="56" width="20" height="3" rx="1.5" fill="#3370ff"/>
  </g>
</svg>
